<?xml version="1.0" encoding="UTF-8" standalone="no"?>
<!-- Created with Inkscape (http://www.inkscape.org/) -->

<svg
   xmlns:dc="http://purl.org/dc/elements/1.1/"
   xmlns:cc="http://creativecommons.org/ns#"
   xmlns:rdf="http://www.w3.org/1999/02/22-rdf-syntax-ns#"
   xmlns:svg="http://www.w3.org/2000/svg"
   xmlns="http://www.w3.org/2000/svg"
   xmlns:sodipodi="http://sodipodi.sourceforge.net/DTD/sodipodi-0.dtd"
   xmlns:inkscape="http://www.inkscape.org/namespaces/inkscape"
   version="1.1"
   id="svg2"
   xml:space="preserve"
   width="286"
   height="286"
   viewBox="0 0 286 286"
   sodipodi:docname="icon.svg"
   inkscape:version="0.92.4 (5da689c313, 2019-01-14)"><metadata
     id="metadata8"><rdf:RDF><cc:Work
         rdf:about=""><dc:format>image/svg+xml</dc:format><dc:type
           rdf:resource="http://purl.org/dc/dcmitype/StillImage" /><dc:title></dc:title></cc:Work></rdf:RDF></metadata><defs
     id="defs6"><clipPath
       clipPathUnits="userSpaceOnUse"
       id="clipPath20"><path
         d="M 0,500 H 500 V 0 H 0 Z"
         id="path18"
         inkscape:connector-curvature="0" /></clipPath><clipPath
       clipPathUnits="userSpaceOnUse"
       id="clipPath30"><path
         d="M 17.4653,441.706 H 483.654 V 98.7002 H 17.4653 Z"
         id="path28"
         inkscape:connector-curvature="0" /></clipPath><clipPath
       clipPathUnits="userSpaceOnUse"
       id="clipPath142"><path
         d="M 16.4341,463.698 H 474.85 V 88.2354 H 16.4341 Z"
         id="path140"
         inkscape:connector-curvature="0" /></clipPath><clipPath
       clipPathUnits="userSpaceOnUse"
       id="clipPath254"><path
         d="m 184.987,441.862 h 87.379 v -50.428 h -87.379 z"
         id="path252"
         inkscape:connector-curvature="0" /></clipPath><clipPath
       clipPathUnits="userSpaceOnUse"
       id="clipPath274"><path
         d="m 172.566,436.847 h 50.708 v -29.264 h -50.708 z"
         id="path272"
         inkscape:connector-curvature="0" /></clipPath><clipPath
       clipPathUnits="userSpaceOnUse"
       id="clipPath294"><path
         d="m 100.996,378.824 h 43.895 v -55.876 h -43.895 z"
         id="path292"
         inkscape:connector-curvature="0" /></clipPath><clipPath
       clipPathUnits="userSpaceOnUse"
       id="clipPath350"><path
         d="M 69.1797,409.467 H 113.074 V 353.592 H 69.1797 Z"
         id="path348"
         inkscape:connector-curvature="0" /></clipPath><clipPath
       clipPathUnits="userSpaceOnUse"
       id="clipPath394"><path
         d="M 168.294,345.472 H 340.633 V 145.601 H 168.294 Z"
         id="path392"
         inkscape:connector-curvature="0" /></clipPath><clipPath
       clipPathUnits="userSpaceOnUse"
       id="clipPath430"><path
         d="M 62.0747,251.962 H 130.36 V 160.545 H 62.0747 Z"
         id="path428"
         inkscape:connector-curvature="0" /></clipPath><clipPath
       clipPathUnits="userSpaceOnUse"
       id="clipPath498"><path
         d="m 356.689,394.16 h 79.638 v -50.591 h -79.638 z"
         id="path496"
         inkscape:connector-curvature="0" /></clipPath><clipPath
       clipPathUnits="userSpaceOnUse"
       id="clipPath550"><path
         d="m 112.678,189.311 h 39.546 V 126.81 h -39.546 z"
         id="path548"
         inkscape:connector-curvature="0" /></clipPath><clipPath
       clipPathUnits="userSpaceOnUse"
       id="clipPath634"><path
         d="M 344.029,173.891 H 476.747 V 98.1191 H 344.029 Z"
         id="path632"
         inkscape:connector-curvature="0" /></clipPath><clipPath
       clipPathUnits="userSpaceOnUse"
       id="clipPath750"><path
         d="m 331.687,185.283 h 56.19 V 150.51 h -56.19 z"
         id="path748"
         inkscape:connector-curvature="0" /></clipPath><clipPath
       clipPathUnits="userSpaceOnUse"
       id="clipPath782"><path
         d="m 389.277,295.603 h 31.048 V 229.16 h -31.048 z"
         id="path780"
         inkscape:connector-curvature="0" /></clipPath><clipPath
       clipPathUnits="userSpaceOnUse"
       id="clipPath850"><path
         d="m 215.967,128.708 h 71.729 V 59.4902 h -71.729 z"
         id="path848"
         inkscape:connector-curvature="0" /></clipPath><clipPath
       clipPathUnits="userSpaceOnUse"
       id="clipPath994"><path
         d="M 0,500 H 500 V 0 H 0 Z"
         id="path992"
         inkscape:connector-curvature="0" /></clipPath></defs><sodipodi:namedview
     pagecolor="#ffffff"
     bordercolor="#666666"
     borderopacity="1"
     objecttolerance="10"
     gridtolerance="10"
     guidetolerance="10"
     inkscape:pageopacity="0"
     inkscape:pageshadow="2"
     inkscape:window-width="1920"
     inkscape:window-height="1015"
     id="namedview4"
     showgrid="false"
     fit-margin-top="0"
     fit-margin-left="0"
     fit-margin-right="0"
     fit-margin-bottom="0"
     inkscape:zoom="1"
     inkscape:cx="65.548608"
     inkscape:cy="162.19866"
     inkscape:window-x="0"
     inkscape:window-y="0"
     inkscape:window-maximized="1"
     inkscape:current-layer="g16" /><g
     id="g10"
     inkscape:groupmode="layer"
     inkscape:label="121170-OQ1P3L-859"
     transform="matrix(1.3333333,0,0,-1.3333333,-107.69259,537.13468)"><g
       id="g14"
       transform="translate(-33.750001,42.750001)"><g
         id="g16"
         clip-path="url(#clipPath20)"><g
           id="g2478"
           transform="translate(18.8493,5.0829164)"><g
             id="g136"><g
               id="g138" /></g><g
             transform="translate(-49.311452)"
             id="g2455"><g
               id="g388"><g
                 id="g390" /><g
                 id="g410"><g
                   clip-path="url(#clipPath394)"
                   id="g408"
                   style="opacity:0.10000598"><g
                     transform="translate(312.7363,331.2368)"
                     id="g398"><path
                       d="m 0,0 c 0,2.781 0.368,5.479 1.048,8.048 -19.346,3.299 -45.114,6.187 -59.324,6.187 -13.768,0 -38.381,-2.711 -57.494,-5.88 0.733,-2.66 1.133,-5.46 1.133,-8.355 0,-16.802 -13.207,-30.517 -29.805,-31.334 2.044,-27.715 9.187,-65.402 17.605,-85.74 13.944,-33.701 62.168,-63.332 68.561,-68.562 6.388,5.23 54.615,34.861 68.557,68.562 8.433,20.375 15.588,58.169 17.615,85.895 C 12.207,-29.446 0,-16.149 0,0"
                       style="fill:#000000;fill-opacity:1;fill-rule:nonzero;stroke:none"
                       id="path396"
                       inkscape:connector-curvature="0" /></g><g
                     transform="translate(254.4604,329.7837)"
                     id="g402"><path
                       d="m 0,0 c -9.258,0 -25.094,-1.414 -40.937,-3.565 -1.821,-17.225 -12.915,-31.727 -28.313,-38.288 1.472,-12.488 3.718,-25.603 6.343,-37.454 2.686,-12.111 5.77,-22.896 8.841,-30.316 9.285,-22.443 39.183,-44.724 54.066,-55.271 0.013,0.012 0.033,0.021 0.046,0.033 v 85.554 L 0.046,0 Z"
                       style="fill:#000000;fill-opacity:1;fill-rule:nonzero;stroke:none"
                       id="path400"
                       inkscape:connector-curvature="0" /></g><g
                     transform="translate(297.3437,325.9487)"
                     id="g406"><path
                       d="m 0,0 c -16.375,2.283 -33.214,3.829 -42.837,3.835 v -79.307 -85.554 c 14.897,10.565 44.739,32.822 54.015,55.238 3.075,7.43 6.159,18.21 8.843,30.316 2.686,12.11 4.969,25.547 6.438,38.28 C 12.033,-30.312 1.829,-16.365 0,0"
                       style="fill:#000000;fill-opacity:1;fill-rule:nonzero;stroke:none"
                       id="path404"
                       inkscape:connector-curvature="0" /></g></g></g></g><g
               id="g412"
               transform="translate(308.2729,335.7002)"><path
                 d="m 0,0 c 0,2.781 0.368,5.479 1.048,8.048 -19.346,3.299 -45.114,6.187 -59.324,6.187 -13.768,0 -38.381,-2.711 -57.494,-5.88 0.733,-2.66 1.133,-5.46 1.133,-8.355 0,-16.802 -13.207,-30.517 -29.805,-31.334 2.044,-27.715 9.187,-65.401 17.605,-85.739 13.944,-33.701 62.168,-63.332 68.561,-68.563 6.388,5.231 54.615,34.862 68.557,68.563 8.433,20.375 15.588,58.168 17.615,85.894 C 12.207,-29.446 0,-16.149 0,0"
                 style="fill:#075edb;fill-opacity:1;fill-rule:nonzero;stroke:none"
                 id="path414"
                 inkscape:connector-curvature="0" /></g><g
               id="g416"
               transform="translate(249.9971,334.2471)"><path
                 d="m 0,0 c -9.258,0 -25.094,-1.414 -40.937,-3.565 -1.821,-17.225 -12.915,-31.727 -28.313,-38.288 1.472,-12.488 3.718,-25.603 6.343,-37.454 2.686,-12.111 5.77,-22.895 8.841,-30.315 9.285,-22.443 39.183,-44.725 54.066,-55.272 0.013,0.012 0.033,0.022 0.046,0.034 v 85.553 L 0.046,0 Z"
                 style="fill:#5eaef7;fill-opacity:1;fill-rule:nonzero;stroke:none"
                 id="path418"
                 inkscape:connector-curvature="0" /></g><g
               id="g420"
               transform="translate(292.8804,330.4121)"><path
                 d="m 0,0 c -16.375,2.283 -33.214,3.829 -42.837,3.835 v -79.307 -85.553 c 14.897,10.564 44.739,32.822 54.015,55.238 3.075,7.43 6.159,18.21 8.843,30.315 2.686,12.11 4.969,25.547 6.438,38.28 C 12.033,-30.312 1.829,-16.365 0,0"
                 style="fill:#268fef;fill-opacity:1;fill-rule:nonzero;stroke:none"
                 id="path422"
                 inkscape:connector-curvature="0" /></g></g><text
             transform="scale(1,-1)"
             id="text2437"
             y="-201.57278"
             x="167.06078"
             style="font-style:normal;font-weight:normal;font-size:30px;line-height:1.25;font-family:sans-serif;letter-spacing:0px;word-spacing:0px;fill:#000000;fill-opacity:1;stroke:none;stroke-width:0.75"
             xml:space="preserve"><tspan
               style="font-style:normal;font-variant:normal;font-weight:normal;font-stretch:normal;font-size:144px;font-family:Carlito;-inkscape-font-specification:Carlito;fill:#ffffff;fill-opacity:1;stroke-width:0.75"
               y="-201.57278"
               x="167.06078"
               id="tspan2435"
               sodipodi:role="line">F</tspan></text>
</g></g></g></g></svg>